<svg xmlns="http://www.w3.org/2000/svg" width="600" height="600" viewBox="0 0 600 600">

  <defs>
    <radialGradient id="bg" cx="50%" cy="42%" r="80%">
      <stop offset="0%" stop-color="#241509"/>
      <stop offset="100%" stop-color="#120C08"/>
    </radialGradient>
    <radialGradient id="halo" cx="50%" cy="45%" r="50%">
      <stop offset="0%" stop-color="#C8402E" stop-opacity="0.18"/>
      <stop offset="100%" stop-color="#C8402E" stop-opacity="0"/>
    </radialGradient>
  </defs>
  <rect width="600" height="600" fill="url(#bg)"/>
  <rect width="600" height="600" fill="url(#halo)"/>

        
    <g transform="translate(300 264) scale(1.95)">
      <path d="M100 155 C 60 155 30 120 30 82 C 30 40 70 22 100 55 C 130 22 170 40 170 82 C 170 120 140 155 100 155 Z" fill="#3A2215" transform="translate(-100 -100)"/>
      <path d="M100 155 C 60 155 30 120 30 82 C 30 40 70 22 100 55 C 130 22 170 40 170 82 C 170 120 140 155 100 155 Z" fill="#4A3224" transform="translate(-88 -106) scale(0.9)"/>
      <rect x="-4" y="-150" width="9" height="40" rx="4.5" fill="#6B4226" transform="rotate(12)"/>
      <path d="M0 -130 Q -45 -185 -90 -170 Q -45 -150 0 -130 Z" fill="#4E9C4E"/>
    </g>
        <path d="M210 252 Q260 300 310 252" stroke="#FBF7EE" stroke-width="9" stroke-linecap="round" fill="none" opacity="0.75"/>
        <path d="M330 300 Q380 348 430 300" stroke="#FBF7EE" stroke-width="7" stroke-linecap="round" fill="none" opacity="0.55"/>
        <g fill="#F6EFE3" opacity="0.9">
          <circle cx="230" cy="360" r="2.5"/><circle cx="360" cy="396" r="2.5"/><circle cx="300" cy="420" r="2.5"/>
        </g>
  <text x="300" y="560" text-anchor="middle" font-family="Georgia, serif" font-size="22" fill="#C9A96A" opacity="0.75">Dark Chocolate &amp; Sea Salt</text>
</svg>