<svg xmlns="http://www.w3.org/2000/svg" width="600" height="600" viewBox="0 0 600 600">

  <defs>
    <radialGradient id="bg" cx="50%" cy="42%" r="80%">
      <stop offset="0%" stop-color="#241509"/>
      <stop offset="100%" stop-color="#120C08"/>
    </radialGradient>
    <radialGradient id="halo" cx="50%" cy="45%" r="50%">
      <stop offset="0%" stop-color="#C8402E" stop-opacity="0.18"/>
      <stop offset="100%" stop-color="#C8402E" stop-opacity="0"/>
    </radialGradient>
  </defs>
  <rect width="600" height="600" fill="url(#bg)"/>
  <rect width="600" height="600" fill="url(#halo)"/>

        
    <g transform="translate(300 264) scale(1.95)">
      <path d="M100 155 C 60 155 30 120 30 82 C 30 40 70 22 100 55 C 130 22 170 40 170 82 C 170 120 140 155 100 155 Z" fill="#C8402E" transform="translate(-100 -100)"/>
      <path d="M100 155 C 60 155 30 120 30 82 C 30 40 70 22 100 55 C 130 22 170 40 170 82 C 170 120 140 155 100 155 Z" fill="#D9502F" transform="translate(-88 -106) scale(0.9)"/>
      <rect x="-4" y="-150" width="9" height="40" rx="4.5" fill="#6B4226" transform="rotate(12)"/>
      <path d="M0 -130 Q -45 -185 -90 -170 Q -45 -150 0 -130 Z" fill="#4E9C4E"/>
    </g>
        <polygon points="230,204.00000000000003 250,252 222,264" fill="#FBF7EE" opacity="0.85"/>
        <polygon points="340,180 362,228 330,252" fill="#FBF7EE" opacity="0.75"/>
        <polygon points="290,300 314,336.00000000000006 280,372" fill="#C9A96A" opacity="0.85"/>
        <polygon points="390,300 412,348 376,360" fill="#FBF7EE" opacity="0.65"/>
        <path d="M430 144 l6 16 16 6 -16 6 -6 16 -6 -16 -16 -6 16 -6 Z" fill="#C9A96A"/>
        <path d="M160 336.00000000000006 l5 13 13 5 -13 5 -5 13 -5 -13 -13 -5 13 -5 Z" fill="#FBF7EE" opacity="0.8"/>
  <text x="300" y="560" text-anchor="middle" font-family="Georgia, serif" font-size="22" fill="#C9A96A" opacity="0.75">Rockstar</text>
</svg>