<svg xmlns="http://www.w3.org/2000/svg" width="600" height="600" viewBox="0 0 600 600">

  <defs>
    <radialGradient id="bg" cx="50%" cy="42%" r="80%">
      <stop offset="0%" stop-color="#241509"/>
      <stop offset="100%" stop-color="#120C08"/>
    </radialGradient>
    <radialGradient id="halo" cx="50%" cy="45%" r="50%">
      <stop offset="0%" stop-color="#C8402E" stop-opacity="0.18"/>
      <stop offset="100%" stop-color="#C8402E" stop-opacity="0"/>
    </radialGradient>
  </defs>
  <rect width="600" height="600" fill="url(#bg)"/>
  <rect width="600" height="600" fill="url(#halo)"/>

        
    <g transform="translate(300 264) scale(1.95)">
      <path d="M100 155 C 60 155 30 120 30 82 C 30 40 70 22 100 55 C 130 22 170 40 170 82 C 170 120 140 155 100 155 Z" fill="#C8894B" transform="translate(-100 -100)"/>
      <path d="M100 155 C 60 155 30 120 30 82 C 30 40 70 22 100 55 C 130 22 170 40 170 82 C 170 120 140 155 100 155 Z" fill="#D9A36A" transform="translate(-88 -106) scale(0.9)"/>
      <rect x="-4" y="-150" width="9" height="40" rx="4.5" fill="#6B4226" transform="rotate(12)"/>
      <path d="M0 -130 Q -45 -185 -90 -170 Q -45 -150 0 -130 Z" fill="#4E9C4E"/>
    </g>
        <rect x="432" y="252" width="36" height="24" rx="7" fill="#A96A2F" transform="rotate(0 450 264)" opacity="0.9"/><rect x="357" y="381.9038105676658" width="36" height="24" rx="7" fill="#A96A2F" transform="rotate(41 375 393.9038105676658)" opacity="0.9"/><rect x="207.00000000000003" y="381.9038105676658" width="36" height="24" rx="7" fill="#A96A2F" transform="rotate(82 225.00000000000003 393.9038105676658)" opacity="0.9"/><rect x="132" y="252" width="36" height="24" rx="7" fill="#A96A2F" transform="rotate(123 150 264)" opacity="0.9"/><rect x="206.99999999999994" y="122.09618943233423" width="36" height="24" rx="7" fill="#A96A2F" transform="rotate(164 224.99999999999994 134.09618943233423)" opacity="0.9"/><rect x="357" y="122.0961894323342" width="36" height="24" rx="7" fill="#A96A2F" transform="rotate(205 375 134.0961894323342)" opacity="0.9"/>
  <text x="300" y="560" text-anchor="middle" font-family="Georgia, serif" font-size="22" fill="#C9A96A" opacity="0.75">Toffee Crunch</text>
</svg>