<svg xmlns="http://www.w3.org/2000/svg" width="512" height="512" viewBox="0 0 512 512">
<rect width="512" height="512" fill="#1B120C"/>
  <circle cx="256" cy="256" r="235.52" fill="#241509" stroke="#C9A96A" stroke-width="10.24"/>

    <g transform="translate(256 276.48) scale(1.9968000000000001)">
      <path d="M100 155 C 60 155 30 120 30 82 C 30 40 70 22 100 55 C 130 22 170 40 170 82 C 170 120 140 155 100 155 Z" fill="#C8402E" transform="translate(-100 -100)"/>
      <path d="M100 155 C 60 155 30 120 30 82 C 30 40 70 22 100 55 C 130 22 170 40 170 82 C 170 120 140 155 100 155 Z" fill="#D9502F" transform="translate(-88 -106) scale(0.9)"/>
      <rect x="-4" y="-150" width="9" height="40" rx="4.5" fill="#6B4226" transform="rotate(12)"/>
      <path d="M0 -130 Q -45 -185 -90 -170 Q -45 -150 0 -130 Z" fill="#4E9C4E"/>
    </g>
</svg>